<svg width="20" height="20" viewBox="0 0 20 20" fill="none" xmlns="http://www.w3.org/2000/svg">
<g clip-path="url(#clip0)">
<path d="M19.9219 14.0542L20.15 12.6315L16.6826 12.0269V9.07478V8.91118L20.0762 7.94375L19.7341 6.57085L16.4948 7.48849C16.2743 6.60419 15.8776 5.7803 15.3315 5.07229C14.7855 4.36429 14.1027 3.78861 13.3293 3.38403V1.25H11.9879V2.8363C11.1055 2.61814 10.1877 2.61814 9.30528 2.8363V1.25H7.96394V3.38403C7.18811 3.7932 6.50443 4.37474 5.95937 5.08911C5.4143 5.80348 5.02062 6.63394 4.8051 7.52405L1.56578 6.57085L1.25727 7.94375L4.61061 8.91118V12.0269L1.14996 12.6315L1.36458 14.0542L4.61061 13.4709C4.62593 14.3487 4.81321 15.2135 5.16055 16.0104L2.12243 19.2399L3.07478 20.25L5.88487 17.2624C6.44927 18.0308 7.17155 18.6526 7.99673 19.0802C8.8219 19.5078 9.7282 19.7301 10.6466 19.7301C11.565 19.7301 12.4713 19.5078 13.2965 19.0802C14.1217 18.6526 14.844 18.0308 15.4083 17.2624L18.2184 20.25L19.1708 19.2399L16.126 16.0104C16.4756 15.214 16.6652 14.3492 16.6826 13.4709L19.9219 14.0542ZM9.97594 18.2654C8.85955 18.0944 7.8385 17.5029 7.09957 16.599C6.36065 15.6951 5.95326 14.5392 5.95194 13.3428V9.07478H9.97594V18.2654ZM6.14643 7.6521C6.43463 6.62347 7.0284 5.7211 7.83932 5.07942C8.65023 4.43774 9.63488 4.09108 10.6466 4.09108C11.6583 4.09108 12.643 4.43774 13.4539 5.07942C14.2648 5.7211 14.8586 6.62347 15.1468 7.6521H6.14643ZM15.3413 13.3428C15.34 14.5392 14.9326 15.6951 14.1936 16.599C13.4547 17.5029 12.4337 18.0944 11.3173 18.2654V9.07478H15.3413V13.3428Z" fill="#9D9D7F"/>
</g>
<defs>
<clipPath id="clip0">
<rect width="20" height="20" fill="white"/>
</clipPath>
</defs>
</svg>
