<svg width="20" height="20" viewBox="0 0 20 20" fill="none" xmlns="http://www.w3.org/2000/svg">
<path d="M19.2857 7.92683H16.875V4.46341C16.875 3.92378 16.5558 3.4878 16.1607 3.4878H9.12946L6.51116 0.0670731C6.47785 0.0244748 6.43403 0.000534441 6.38839 0H0.714286C0.319196 0 0 0.435976 0 0.97561V19.0244C0 19.564 0.319196 20 0.714286 20H16.2946C16.5848 20 16.8482 19.7591 16.9576 19.3902L19.9487 9.26829C19.9821 9.15244 20 9.02744 20 8.90244C20 8.36281 19.6808 7.92683 19.2857 7.92683ZM15.2679 7.92683H3.88393C3.59375 7.92683 3.33036 8.16768 3.22098 8.53659L1.60714 14V2.19512H5.81473L8.48438 5.68293H15.2679V7.92683Z" fill="#9D9D7F"/>
</svg>
