<svg width="20" height="20" viewBox="0 0 20 20" fill="none" xmlns="http://www.w3.org/2000/svg">
<path d="M8.125 1.25V3.75L6.875 4.375L5 2.5L2.5 5L4.375 6.875L3.75 8.125H1.25V11.875H3.75L4.375 13.125L2.5 15L5 17.5L6.875 15.625L8.125 16.25V18.75H11.875V16.25L13.125 15.625L15 17.5L17.5 15L15.625 13.125L16.25 11.875H18.75V8.125H16.25L15.625 6.875L17.5 5L15 2.5L13.125 4.375L11.875 3.75V1.25H8.125Z" stroke="#9D9D7F" stroke-width="2" stroke-linecap="round" stroke-linejoin="round"/>
<path d="M10 12.5C11.3807 12.5 12.5 11.3807 12.5 10C12.5 8.61929 11.3807 7.5 10 7.5C8.61929 7.5 7.5 8.61929 7.5 10C7.5 11.3807 8.61929 12.5 10 12.5Z" stroke="#9D9D7F" stroke-width="2" stroke-linecap="round" stroke-linejoin="round"/>
</svg>
