<svg width="20" height="18" viewBox="0 0 20 18" fill="none" xmlns="http://www.w3.org/2000/svg">
<path d="M11.9944 2.01255H3.01255C2.48257 2.01255 2.00837 2.48675 2.00837 3.01673V10.9944C2.00837 11.5244 2.48257 11.9986 3.01255 11.9986H3.98884V14.007H3.01255C1.36681 14.007 0 12.6402 0 10.9944V3.01673C0 1.37099 1.36681 0.00418091 3.01255 0.00418091H11.9944C13.6402 0.00418091 15.007 1.37099 15.007 3.01673H12.9986C12.9986 2.48675 12.5244 2.01255 11.9944 2.01255ZM8.00558 4.02092H16.9874C18.6332 4.02092 20 5.35983 20 7.00558V15.0112C20 16.6569 18.6332 17.9958 16.9874 17.9958H8.00558C6.35983 17.9958 4.99303 16.6569 4.99303 15.0112V7.00558C4.99303 5.35983 6.35983 4.02092 8.00558 4.02092ZM8.00558 16.0153H16.9874C17.5174 16.0153 17.9916 15.5411 17.9916 15.0112V7.00558C17.9916 6.47559 17.5174 6.00139 16.9874 6.00139H8.00558C7.47559 6.00139 7.00139 6.47559 7.00139 7.00558V15.0112C7.00139 15.5411 7.47559 16.0153 8.00558 16.0153Z" fill="#9D9D7F"/>
</svg>
