<svg width="20" height="20" viewBox="0 0 20 20" fill="none" xmlns="http://www.w3.org/2000/svg">
<path d="M17.9167 0.506256H2.08333C1.66341 0.506256 1.26068 0.673071 0.963748 0.970004C0.666815 1.26694 0.5 1.66966 0.5 2.08959V17.9229C0.5 18.3428 0.666815 18.7456 0.963748 19.0425C1.26068 19.3394 1.66341 19.5063 2.08333 19.5063H17.9167C18.3366 19.5063 18.7393 19.3394 19.0363 19.0425C19.3332 18.7456 19.5 18.3428 19.5 17.9229V2.08959C19.5 1.66966 19.3332 1.26694 19.0363 0.970004C18.7393 0.673071 18.3366 0.506256 17.9167 0.506256V0.506256ZM17.9167 2.08959V5.25626H2.08333V2.08959H17.9167ZM2.08333 17.9229V6.83959H17.9167V17.9229H2.08333Z" fill="#9D9D7F"/>
<path d="M4.72498 11.1125L6.48748 12.8813L4.72498 14.65L5.60623 15.5313L8.25623 12.8813L5.60623 10.2313L4.72498 11.1125V11.1125Z" fill="#9D9D7F"/>
</svg>
